<svg width="960" height="720" viewBox="0 0 960 720" fill="none" xmlns="http://www.w3.org/2000/svg" role="img" aria-label="专利服务撮合平台示意图">
  <rect width="960" height="720" rx="28" fill="#EAF0F7"/>
  <rect x="94" y="86" width="772" height="548" rx="24" fill="#FFFFFF" stroke="#C9D6E8" stroke-width="2"/>
  <rect x="136" y="132" width="304" height="400" rx="18" fill="#F7FAFD" stroke="#D5E0EE" stroke-width="2"/>
  <rect x="168" y="166" width="132" height="18" rx="9" fill="#1E5B88"/>
  <rect x="168" y="210" width="218" height="12" rx="6" fill="#C5D3E3"/>
  <rect x="168" y="242" width="186" height="12" rx="6" fill="#D6E0EC"/>
  <rect x="168" y="286" width="226" height="56" rx="12" fill="#FFFFFF" stroke="#CEDAE8"/>
  <rect x="188" y="306" width="86" height="10" rx="5" fill="#7E94AD"/>
  <rect x="188" y="326" width="160" height="8" rx="4" fill="#D6E0EC"/>
  <rect x="168" y="364" width="226" height="56" rx="12" fill="#FFFFFF" stroke="#CEDAE8"/>
  <rect x="188" y="384" width="112" height="10" rx="5" fill="#7E94AD"/>
  <rect x="188" y="404" width="142" height="8" rx="4" fill="#D6E0EC"/>
  <rect x="168" y="456" width="166" height="38" rx="19" fill="#2E7DA8"/>
  <rect x="536" y="146" width="250" height="78" rx="16" fill="#F5F9FC" stroke="#C9D6E8"/>
  <rect x="566" y="174" width="92" height="12" rx="6" fill="#1E5B88"/>
  <rect x="566" y="198" width="160" height="8" rx="4" fill="#C5D3E3"/>
  <rect x="536" y="260" width="250" height="78" rx="16" fill="#F5F9FC" stroke="#C9D6E8"/>
  <rect x="566" y="288" width="118" height="12" rx="6" fill="#1E5B88"/>
  <rect x="566" y="312" width="154" height="8" rx="4" fill="#C5D3E3"/>
  <rect x="536" y="374" width="250" height="78" rx="16" fill="#F5F9FC" stroke="#C9D6E8"/>
  <rect x="566" y="402" width="104" height="12" rx="6" fill="#1E5B88"/>
  <rect x="566" y="426" width="170" height="8" rx="4" fill="#C5D3E3"/>
  <path d="M440 298H512" stroke="#2E7DA8" stroke-width="6" stroke-linecap="round"/>
  <path d="M492 278L514 298L492 318" stroke="#2E7DA8" stroke-width="6" stroke-linecap="round" stroke-linejoin="round"/>
  <circle cx="726" cy="536" r="48" fill="#DCE9F4"/>
  <path d="M698 536L718 556L756 512" stroke="#2E7DA8" stroke-width="8" stroke-linecap="round" stroke-linejoin="round"/>
</svg>
